<svg width="302" height="303" viewBox="0 0 302 303" version="1.1" xmlns="http://www.w3.org/2000/svg" xmlns:xlink="http://www.w3.org/1999/xlink" xmlns:figma="http://www.figma.com/figma/ns">
<title>Group</title>
<desc>Created using Figma</desc>
<g id="Canvas" transform="translate(138 500)" figma:type="canvas">
<g id="Group" style="mix-blend-mode:normal;isolation:isolate;" figma:type="frame">
<g id="Top" style="mix-blend-mode:normal;" figma:type="vector">
<use xlink:href="#path0_stroke" transform="translate(-137 -461.5)" style="mix-blend-mode:normal;"/>
</g>
<g id="Bottom" style="mix-blend-mode:normal;" figma:type="vector">
<use xlink:href="#path1_stroke" transform="translate(-118 -276.5)" style="mix-blend-mode:normal;"/>
</g>
<g id="CPU frame" style="mix-blend-mode:normal;" figma:type="vector">
<use xlink:href="#path2_stroke" transform="translate(82 -499.5)" style="mix-blend-mode:normal;"/>
</g>
<g id="Vector 2" style="mix-blend-mode:normal;" figma:type="vector">
<use xlink:href="#path3_stroke" transform="translate(102 -483.5)" style="mix-blend-mode:normal;"/>
</g>
<g id="Ellipse" style="mix-blend-mode:normal;" figma:type="ellipse">
<use xlink:href="#path4_stroke" transform="translate(111 -390)" style="mix-blend-mode:normal;"/>
</g>
<g id="Monitor Cable" style="mix-blend-mode:normal;" figma:type="vector">
<use xlink:href="#path5_stroke" transform="translate(-101 -326)" style="mix-blend-mode:normal;"/>
</g>
<g id="Mouse" style="mix-blend-mode:normal;" figma:type="vector">
<use xlink:href="#path6_stroke" transform="translate(116.5 -274.503)" style="mix-blend-mode:normal;"/>
</g>
<g id="Vector 4" style="mix-blend-mode:normal;" figma:type="vector">
<use xlink:href="#path7_stroke" transform="translate(-116 -449.5)" style="mix-blend-mode:normal;"/>
</g>
<g id="Vector 5" style="mix-blend-mode:normal;" figma:type="vector">
<use xlink:href="#path8_stroke" transform="translate(-114 -349)" style="mix-blend-mode:normal;"/>
</g>
<g id="Vector 3" style="mix-blend-mode:normal;" figma:type="vector">
<use xlink:href="#path9_stroke" transform="matrix(1 -4.52783e-08 4.52783e-08 1 -109 -246)" style="mix-blend-mode:normal;"/>
</g>
<g id="Vector 3" style="mix-blend-mode:normal;" figma:type="vector">
<use xlink:href="#path10_stroke" transform="translate(-109 -228)" style="mix-blend-mode:normal;"/>
</g>
<g id="Vector 3" style="mix-blend-mode:normal;" figma:type="vector">
<use xlink:href="#path11_stroke" transform="translate(-108.5 -263)" style="mix-blend-mode:normal;"/>
</g>
<g id="Ellipse 2" style="mix-blend-mode:normal;" figma:type="ellipse">
<use xlink:href="#path12_stroke" transform="translate(128 -267)" style="mix-blend-mode:normal;"/>
</g>
</g>
</g>
<defs>
<path id="path0_stroke" d="M 0 0L 0 -0.125L -0.125 -0.125L -0.125 0L 0 0ZM 247 0L 247.125 0L 247.125 -0.125L 247 -0.125L 247 0ZM 247 133L 247 133.125L 247.125 133.125L 247.125 133L 247 133ZM 0 133L -0.125 133L -0.125 133.125L 0 133.125L 0 133ZM 0 0.125L 247 0.125L 247 -0.125L 0 -0.125L 0 0.125ZM 246.875 0L 246.875 133L 247.125 133L 247.125 0L 246.875 0ZM 247 132.875L 0 132.875L 0 133.125L 247 133.125L 247 132.875ZM 0.125 133L 0.125 0L -0.125 0L -0.125 133L 0.125 133Z"/>
<path id="path1_stroke" d="M 0 0L 0 -0.125L -0.125 -0.125L -0.125 0L 0 0ZM 0 79L -0.125 79L -0.125 79.125L 0 79.125L 0 79ZM 196 79L 196 79.125L 196.125 79.125L 196.125 79L 196 79ZM 196 0L 196.125 0L 196.125 -0.125L 196 -0.125L 196 0ZM -0.125 0L -0.125 79L 0.125 79L 0.125 0L -0.125 0ZM 0 79.125L 196 79.125L 196 78.875L 0 78.875L 0 79.125ZM 196.125 79L 196.125 0L 195.875 0L 195.875 79L 196.125 79ZM 196 -0.125L 0 -0.125L 0 0.125L 196 0.125L 196 -0.125Z"/>
<path id="path2_stroke" d="M 0 0L 0 -0.125L -0.125 -0.125L -0.125 0L 0 0ZM 81 0L 81.125 0L 81.125 -0.125L 81 -0.125L 81 0ZM 81 166L 81 166.125L 81.125 166.125L 81.125 166L 81 166ZM 0.125 34L 0.125 0L -0.125 0L -0.125 34L 0.125 34ZM 0 0.125L 81 0.125L 81 -0.125L 0 -0.125L 0 0.125ZM 80.875 0L 80.875 166L 81.125 166L 81.125 0L 80.875 0ZM 81 165.875L 31 165.875L 31 166.125L 81 166.125L 81 165.875Z"/>
<path id="path3_stroke" d="M 0 0.125L 45 0.125L 45 -0.125L 0 -0.125L 0 0.125Z"/>
<path id="path4_stroke" d="M 33.875 17C 33.875 26.3198 26.3198 33.875 17 33.875L 17 34.125C 26.4579 34.125 34.125 26.4579 34.125 17L 33.875 17ZM 17 33.875C 7.68019 33.875 0.125 26.3198 0.125 17L -0.125 17C -0.125 26.4579 7.54212 34.125 17 34.125L 17 33.875ZM 0.125 17C 0.125 7.68019 7.68019 0.125 17 0.125L 17 -0.125C 7.54212 -0.125 -0.125 7.54212 -0.125 17L 0.125 17ZM 17 0.125C 26.3198 0.125 33.875 7.68019 33.875 17L 34.125 17C 34.125 7.54212 26.4579 -0.125 17 -0.125L 17 0.125Z"/>
<path id="path5_stroke" d="M 115.733 0.0111601C 116.084 3.92001 115.875 9.76786 114.108 14.6449C 113.225 17.0826 111.965 19.2594 110.186 20.8362C 108.416 22.407 106.137 23.375 103.219 23.375L 103.219 23.625C 106.198 23.625 108.536 22.6347 110.352 21.0232C 112.158 19.4176 113.452 17.1883 114.343 14.7301C 116.121 9.81548 116.334 3.91332 115.982 -0.0111601L 115.733 0.0111601ZM 103.219 23.375C 91.4222 23.375 45.1291 23.375 19.5 23.375L 19.5 23.625C 45.1291 23.625 91.4222 23.625 103.219 23.625L 103.219 23.375ZM 19.5 23.5C 19.5 23.375 19.4999 23.375 19.4996 23.375C 19.4995 23.375 19.4992 23.375 19.4988 23.375C 19.4982 23.375 19.4971 23.375 19.4959 23.375C 19.4934 23.375 19.4896 23.375 19.4847 23.3751C 19.4751 23.3752 19.4605 23.3754 19.4416 23.3757C 19.4043 23.3765 19.3483 23.3779 19.276 23.3808C 19.1323 23.3866 18.9199 23.3983 18.6514 23.4214C 18.1161 23.4675 17.3474 23.5602 16.4285 23.7446C 14.5946 24.1131 12.1368 24.8545 9.68549 26.3304C 4.77149 29.2914 -0.125 35.2079 -0.125 47L 0.125 47C 0.125 35.2921 4.97851 29.4586 9.81451 26.5446C 12.2382 25.083 14.6554 24.3556 16.4777 23.9897C 17.387 23.807 18.1417 23.7161 18.6728 23.6704C 18.9375 23.6476 19.1441 23.6363 19.286 23.6306C 19.3566 23.6278 19.41 23.6264 19.4465 23.6257C 19.4645 23.6253 19.4779 23.6252 19.4871 23.6251C 19.4915 23.625 19.4948 23.625 19.497 23.625C 19.4981 23.625 19.4989 23.625 19.4994 23.625C 19.4997 23.625 19.4998 23.625 19.4999 23.625C 19.5 23.625 19.5 23.625 19.5 23.5Z"/>
<path id="path6_stroke" d="M -0.125 13.5026L -0.125 61.5026L 0.125 61.5026L 0.125 13.5026L -0.125 13.5026ZM -0.125 61.5026C -0.125 66.0548 2.31183 69.497 5.94868 71.8035C 9.58239 74.108 14.4193 75.2838 19.2492 75.3151C 24.079 75.3465 28.9165 74.2336 32.551 71.9443C 36.1893 69.6527 38.625 66.1787 38.625 61.5026L 38.375 61.5026C 38.375 66.0765 35.9982 69.4775 32.4178 71.7328C 28.8335 73.9904 24.046 75.0963 19.2508 75.0651C 14.4557 75.034 9.66761 73.866 6.08257 71.5924C 2.50067 69.3207 0.125 65.9504 0.125 61.5026L -0.125 61.5026ZM 38.625 61.5026L 38.625 13.5026L 38.375 13.5026L 38.375 61.5026L 38.625 61.5026ZM 38.625 13.5026C 38.625 9.07404 36.1867 5.69461 32.5508 3.41235C 28.9176 1.13176 24.0813 -0.0596651 19.2516 -0.122386C 14.4221 -0.185106 9.58454 0.880635 5.94983 3.13069C 2.31104 5.38327 -0.125 8.82626 -0.125 13.5026L 0.125 13.5026C 0.125 8.92891 2.50146 5.55942 6.08142 3.34326C 9.66546 1.12457 14.4529 0.0653143 19.2484 0.127593C 24.0437 0.189869 28.8324 1.37344 32.4179 3.62409C 36.0008 5.87306 38.375 9.18112 38.375 13.5026L 38.625 13.5026Z"/>
<path id="path7_stroke" d="M 0 0.125L 52.5 0.125L 52.5 -0.125L 0 -0.125L 0 0.125Z"/>
<path id="path8_stroke" d="M 0 0.125L 11.875 0.125L 11.875 -0.125L 0 -0.125L 0 0.125ZM 16.625 0.125L 40.375 0.125L 40.375 -0.125L 16.625 -0.125L 16.625 0.125ZM 45.125 0.125L 57 0.125L 57 -0.125L 45.125 -0.125L 45.125 0.125Z"/>
<path id="path9_stroke" d="M 0 0.125L 7.90816 0.125L 7.90816 -0.125L 0 -0.125L 0 0.125ZM 14.2347 0.125L 30.051 0.125L 30.051 -0.125L 14.2347 -0.125L 14.2347 0.125ZM 36.3776 0.125L 52.1939 0.125L 52.1939 -0.125L 36.3776 -0.125L 36.3776 0.125ZM 58.5204 0.125L 74.3367 0.125L 74.3367 -0.125L 58.5204 -0.125L 58.5204 0.125ZM 80.6633 0.125L 96.4796 0.125L 96.4796 -0.125L 80.6633 -0.125L 80.6633 0.125ZM 102.806 0.125L 118.622 0.125L 118.622 -0.125L 102.806 -0.125L 102.806 0.125ZM 124.949 0.125L 140.765 0.125L 140.765 -0.125L 124.949 -0.125L 124.949 0.125ZM 147.092 0.125L 155 0.125L 155 -0.125L 147.092 -0.125L 147.092 0.125Z"/>
<path id="path10_stroke" d="M 0 0.125L 7.1875 0.125L 7.1875 -0.125L 0 -0.125L 0 0.125ZM 12.9375 0.125L 27.3125 0.125L 27.3125 -0.125L 12.9375 -0.125L 12.9375 0.125ZM 33.0625 0.125L 47.4375 0.125L 47.4375 -0.125L 33.0625 -0.125L 33.0625 0.125ZM 53.1875 0.125L 67.5625 0.125L 67.5625 -0.125L 53.1875 -0.125L 53.1875 0.125ZM 73.3125 0.125L 87.6875 0.125L 87.6875 -0.125L 73.3125 -0.125L 73.3125 0.125ZM 93.4375 0.125L 107.812 0.125L 107.812 -0.125L 93.4375 -0.125L 93.4375 0.125ZM 113.563 0.125L 127.937 0.125L 127.937 -0.125L 113.563 -0.125L 113.563 0.125ZM 133.688 0.125L 148.062 0.125L 148.062 -0.125L 133.688 -0.125L 133.688 0.125ZM 153.812 0.125L 161 0.125L 161 -0.125L 153.812 -0.125L 153.812 0.125Z"/>
<path id="path11_stroke" d="M 0 0.125L 7.70089 0.125L 7.70089 -0.125L 0 -0.125L 0 0.125ZM 13.8616 0.125L 29.2634 0.125L 29.2634 -0.125L 13.8616 -0.125L 13.8616 0.125ZM 35.4241 0.125L 50.8259 0.125L 50.8259 -0.125L 35.4241 -0.125L 35.4241 0.125ZM 56.9866 0.125L 72.3884 0.125L 72.3884 -0.125L 56.9866 -0.125L 56.9866 0.125ZM 78.5491 0.125L 93.9509 0.125L 93.9509 -0.125L 78.5491 -0.125L 78.5491 0.125ZM 100.112 0.125L 115.513 0.125L 115.513 -0.125L 100.112 -0.125L 100.112 0.125ZM 121.674 0.125L 137.076 0.125L 137.076 -0.125L 121.674 -0.125L 121.674 0.125ZM 143.237 0.125L 158.638 0.125L 158.638 -0.125L 143.237 -0.125L 143.237 0.125ZM 164.799 0.125L 172.5 0.125L 172.5 -0.125L 164.799 -0.125L 164.799 0.125Z"/>
<path id="path12_stroke" d="M 13.875 9C 13.875 13.9326 10.7695 17.875 7 17.875L 7 18.125C 10.9624 18.125 14.125 14.0085 14.125 9L 13.875 9ZM 7 17.875C 3.23046 17.875 0.125 13.9326 0.125 9L -0.125 9C -0.125 14.0085 3.03756 18.125 7 18.125L 7 17.875ZM 0.125 9C 0.125 4.06742 3.23046 0.125 7 0.125L 7 -0.125C 3.03756 -0.125 -0.125 3.99146 -0.125 9L 0.125 9ZM 7 0.125C 10.7695 0.125 13.875 4.06742 13.875 9L 14.125 9C 14.125 3.99146 10.9624 -0.125 7 -0.125L 7 0.125Z"/>
</defs>
</svg>
