<svg id="obt" width="306" height="309" viewBox="0 0 306 309" version="1.1" xmlns="http://www.w3.org/2000/svg" xmlns:xlink="http://www.w3.org/1999/xlink" xmlns:figma="http://www.figma.com/figma/ns">
                <title>Group</title>
                <desc>Created using Figma</desc>
                <g id="Canvas" transform="translate(144 506)" figma:type="canvas">
                <g id="Top" style="mix-blend-mode:normal;" figma:type="vector" transform="translate(-137 -461.5)">
                <path id="path0_stroke" d="M 0 0L 0 -3L -3 -3L -3 0L 0 0ZM 247 0L 250 0L 250 -3L 247 -3L 247 0ZM 247 133L 247 136L 250 136L 250 133L 247 133ZM 0 133L -3 133L -3 136L 0 136L 0 133ZM 0 3L 247 3L 247 -3L 0 -3L 0 3ZM 244 0L 244 133L 250 133L 250 0L 244 0ZM 247 130L 0 130L 0 136L 247 136L 247 130ZM 3 133L 3 0L -3 0L -3 133L 3 133Z"/>
                </g>
                <g id="Bottom" style="mix-blend-mode:normal;" figma:type="vector" transform="translate(-118 -276.5)">
                <path id="path1_stroke" d="M 0 0L 0 -3L -3 -3L -3 0L 0 0ZM 0 79L -3 79L -3 82L 0 82L 0 79ZM 196 79L 196 82L 199 82L 199 79L 196 79ZM 196 0L 199 0L 199 -3L 196 -3L 196 0ZM -3 0L -3 79L 3 79L 3 0L -3 0ZM 0 82L 196 82L 196 76L 0 76L 0 82ZM 199 79L 199 0L 193 0L 193 79L 199 79ZM 196 -3L 0 -3L 0 3L 196 3L 196 -3Z"/>
                </g>
                <g id="CPU frame" style="mix-blend-mode:normal;" figma:type="vector" transform="translate(82 -499.5)">
                <path id="path2_stroke" d="M 0 0L 0 -3L -3 -3L -3 0L 0 0ZM 81 0L 84 0L 84 -3L 81 -3L 81 0ZM 81 166L 81 169L 84 169L 84 166L 81 166ZM 3 34L 3 0L -3 0L -3 34L 3 34ZM 0 3L 81 3L 81 -3L 0 -3L 0 3ZM 78 0L 78 166L 84 166L 84 0L 78 0ZM 81 163L 31 163L 31 169L 81 169L 81 163Z"/>
                </g>
                <g id="Vector 2" style="mix-blend-mode:normal;" figma:type="vector" transform="translate(102 -483.5)">
                <path id="path3_stroke" d="M 0 3L 45 3L 45 -3L 0 -3L 0 3Z"/>
                </g>
                <g id="Ellipse" style="mix-blend-mode:normal;" figma:type="ellipse" transform="translate(111 -390)">
                <path id="path4_stroke" d="M 31 17C 31 24.732 24.732 31 17 31L 17 37C 28.0457 37 37 28.0457 37 17L 31 17ZM 17 31C 9.26801 31 3 24.732 3 17L -3 17C -3 28.0457 5.95431 37 17 37L 17 31ZM 3 17C 3 9.26801 9.26801 3 17 3L 17 -3C 5.95431 -3 -3 5.95431 -3 17L 3 17ZM 17 3C 24.732 3 31 9.26801 31 17L 37 17C 37 5.95431 28.0457 -3 17 -3L 17 3Z"/>
                </g>
                <g id="Monitor Cable" style="mix-blend-mode:normal;" figma:type="vector" transform="translate(-101 -326)">
                <path id="path5_stroke" d="M 112.87 0.267841C 113.21 3.997 113.053 9.22025 111.404 13.666C 110.62 15.8674 109.738 17.4403 108.277 18.686C 107.035 19.7887 105.436 20.5 103.219 20.5L 103.219 26.5C 106.9 26.5 109.917 25.253 112.26 23.1734C 114.385 21.2368 116.057 18.4034 117.046 15.709C 118.943 10.3631 119.208 3.83634 118.846 -0.267841L 112.87 0.267841ZM 103.219 20.5C 91.4222 20.5 45.1291 20.5 19.5 20.5L 19.5 26.5C 45.1291 26.5 91.4222 26.5 103.219 26.5L 103.219 20.5ZM 19.5 23.5C 19.5 20.5 19.4982 20.5 19.4962 20.5C 19.4955 20.5 19.4935 20.5 19.492 20.5C 19.4902 20.5 19.4858 20.5 19.4822 20.5C 19.4775 20.5001 19.4667 20.5001 19.4572 20.5002C 19.4429 20.5004 19.4141 20.5007 19.3858 20.5013C 19.3387 20.5022 19.2529 20.5045 19.1606 20.5082C 18.9959 20.5148 18.718 20.5304 18.4048 20.557C 17.8207 20.6077 16.892 20.7215 15.8624 20.9259C 13.8961 21.3243 10.9712 22.2264 8.20167 23.8679C 2.39084 27.3693 -3 34.2397 -3 47L 3 47C 3 36.2603 7.35916 31.3807 11.2983 29.0071C 13.4038 27.7111 15.3539 27.1445 17.0439 26.8084C 17.8424 26.6457 18.4371 26.5759 18.9194 26.5348C 19.1394 26.5155 19.2804 26.5081 19.4014 26.5033C 19.4519 26.5012 19.4756 26.5007 19.5024 26.5002C 19.5109 26.5 19.519 26.4999 19.5146 26.5C 19.5147 26.5 19.5106 26.5 19.5107 26.5C 19.5119 26.5 19.5056 26.5 19.5062 26.5C 19.5053 26.5 19.5038 26.5 19.5033 26.5C 19.5017 26.5 19.5 26.5 19.5 23.5Z"/>
                </g>
                <g id="Mouse" style="mix-blend-mode:normal;" figma:type="vector" transform="translate(116.5 -274.503)">
                <path id="path6_stroke" d="M -3 13.5026L -3 61.5026L 3 61.5026L 3 13.5026L -3 13.5026ZM -3 61.5026C -3 67.2543 0.140116 71.5241 4.4089 74.2314C 8.60225 76.8908 14.0006 78.1561 19.2305 78.1901C 24.4587 78.224 29.872 77.0295 34.0833 74.377C 38.386 71.6668 41.5 67.3531 41.5 61.5026L 35.5 61.5026C 35.5 64.9021 33.8015 67.4634 30.8855 69.3001C 27.878 71.1945 23.6663 72.2187 19.2695 72.1902C 14.8744 72.1616 10.6478 71.0832 7.62235 69.1645C 4.67238 67.2936 3 64.7508 3 61.5026L -3 61.5026ZM 41.5 61.5026L 41.5 13.5026L 35.5 13.5026L 35.5 61.5026L 41.5 61.5026ZM 41.5 13.5026C 41.5 7.84254 38.3251 3.6424 34.0793 0.977315C 29.8976 -1.64755 24.5127 -2.9293 19.289 -2.99714C 14.0689 -3.06494 8.65402 -1.92463 4.43656 0.686175C 0.121214 3.35758 -3 7.64579 -3 13.5026L 3 13.5026C 3 10.1094 4.69129 7.58511 7.59469 5.78777C 10.596 3.92983 14.8061 2.94514 19.211 3.00235C 23.6123 3.05951 27.8524 4.15275 30.8894 6.05912C 33.8624 7.92528 35.5 10.4126 35.5 13.5026L 41.5 13.5026Z"/>
                </g>
                <g id="Vector 4" style="mix-blend-mode:normal;" figma:type="vector" transform="translate(-116 -449.5)">
                <path id="path7_stroke" d="M 0 3L 52.5 3L 52.5 -3L 0 -3L 0 3Z"/>
                </g>
                <g id="Vector 5" style="mix-blend-mode:normal;" figma:type="vector" transform="translate(-114 -349)">
                <path id="path8_stroke" d="M 0 3L 11.875 3L 11.875 -3L 0 -3L 0 3ZM 16.625 3L 40.375 3L 40.375 -3L 16.625 -3L 16.625 3ZM 45.125 3L 57 3L 57 -3L 45.125 -3L 45.125 3Z"/>
                </g>
                <g id="Vector 3" style="mix-blend-mode:normal;" figma:type="vector" transform="matrix(1 -4.52783e-08 4.52783e-08 1 -109 -246)">
                <path id="path9_stroke" d="M 0 3L 7.90816 3L 7.90816 -3L 0 -3L 0 3ZM 14.2347 3L 30.051 3L 30.051 -3L 14.2347 -3L 14.2347 3ZM 36.3776 3L 52.1939 3L 52.1939 -3L 36.3776 -3L 36.3776 3ZM 58.5204 3L 74.3367 3L 74.3367 -3L 58.5204 -3L 58.5204 3ZM 80.6633 3L 96.4796 3L 96.4796 -3L 80.6633 -3L 80.6633 3ZM 102.806 3L 118.622 3L 118.622 -3L 102.806 -3L 102.806 3ZM 124.949 3L 140.765 3L 140.765 -3L 124.949 -3L 124.949 3ZM 147.092 3L 155 3L 155 -3L 147.092 -3L 147.092 3Z"/>
                </g>
                <g id="Vector 3" style="mix-blend-mode:normal;" figma:type="vector" transform="translate(-109 -228)">
                <path id="path10_stroke" d="M 0 3L 7.1875 3L 7.1875 -3L 0 -3L 0 3ZM 12.9375 3L 27.3125 3L 27.3125 -3L 12.9375 -3L 12.9375 3ZM 33.0625 3L 47.4375 3L 47.4375 -3L 33.0625 -3L 33.0625 3ZM 53.1875 3L 67.5625 3L 67.5625 -3L 53.1875 -3L 53.1875 3ZM 73.3125 3L 87.6875 3L 87.6875 -3L 73.3125 -3L 73.3125 3ZM 93.4375 3L 107.812 3L 107.812 -3L 93.4375 -3L 93.4375 3ZM 113.563 3L 127.937 3L 127.937 -3L 113.563 -3L 113.563 3ZM 133.688 3L 148.062 3L 148.062 -3L 133.688 -3L 133.688 3ZM 153.812 3L 161 3L 161 -3L 153.812 -3L 153.812 3Z"/>
                </g>
                <g id="Vector 3" style="mix-blend-mode:normal;" figma:type="vector" transform="translate(-108.5 -263)">
                <path id="path11_stroke" d="M 0 3L 7.70089 3L 7.70089 -3L 0 -3L 0 3ZM 13.8616 3L 29.2634 3L 29.2634 -3L 13.8616 -3L 13.8616 3ZM 35.4241 3L 50.8259 3L 50.8259 -3L 35.4241 -3L 35.4241 3ZM 56.9866 3L 72.3884 3L 72.3884 -3L 56.9866 -3L 56.9866 3ZM 78.5491 3L 93.9509 3L 93.9509 -3L 78.5491 -3L 78.5491 3ZM 100.112 3L 115.513 3L 115.513 -3L 100.112 -3L 100.112 3ZM 121.674 3L 137.076 3L 137.076 -3L 121.674 -3L 121.674 3ZM 143.237 3L 158.638 3L 158.638 -3L 143.237 -3L 143.237 3ZM 164.799 3L 172.5 3L 172.5 -3L 164.799 -3L 164.799 3Z"/>
                </g>
                </g>
                </svg>
