<svg width="208" height="380" viewBox="0 0 208 380" version="1.1" xmlns="http://www.w3.org/2000/svg" xmlns:xlink="http://www.w3.org/1999/xlink" xmlns:figma="http://www.figma.com/figma/ns">
<title>smartphone-1</title>
<desc>Created using Figma</desc>
<g id="Canvas" transform="translate(420 356)" figma:type="canvas">
<g id="smartphone-1" style="mix-blend-mode:normal;" figma:type="frame">
<g id="Group" style="mix-blend-mode:normal;" figma:type="frame">
<g id="Group" style="mix-blend-mode:normal;" figma:type="frame">
<g id="Group" style="mix-blend-mode:normal;" figma:type="frame">
<g id="Vector" style="mix-blend-mode:normal;" figma:type="vector">
<mask id="mask0_outline_ins">
<use xlink:href="#path0_fill" fill="white" transform="translate(-419.879 -356)"/>
</mask>
<g mask="url(#mask0_outline_ins)">
<use xlink:href="#path1_stroke_2x" transform="translate(-419.879 -356)" style="mix-blend-mode:normal;"/>
</g>
</g>
<g id="Vector" style="mix-blend-mode:normal;" figma:type="vector">
<mask id="mask1_outline_ins">
<use xlink:href="#path2_fill" fill="white" transform="translate(-384.242 -17.5625)"/>
</mask>
<g mask="url(#mask1_outline_ins)">
<use xlink:href="#path3_stroke_2x" transform="translate(-384.242 -17.5625)" style="mix-blend-mode:normal;"/>
</g>
</g>
<g id="Vector" style="mix-blend-mode:normal;" figma:type="vector">
<mask id="mask2_outline_ins">
<use xlink:href="#path4_fill" fill="white" transform="translate(-265.454 -17.5625)"/>
</mask>
<g mask="url(#mask2_outline_ins)">
<use xlink:href="#path5_stroke_2x" transform="translate(-265.454 -17.5625)" style="mix-blend-mode:normal;"/>
</g>
</g>
<g id="Vector" style="mix-blend-mode:normal;" figma:type="vector">
<mask id="mask3_outline_ins">
<use xlink:href="#path6_fill" fill="white" transform="translate(-330.788 -17.5625)"/>
</mask>
<g mask="url(#mask3_outline_ins)">
<use xlink:href="#path7_stroke_2x" transform="translate(-330.788 -17.5625)" style="mix-blend-mode:normal;"/>
</g>
</g>
<g id="Vector" style="mix-blend-mode:normal;" figma:type="vector">
<mask id="mask4_outline_ins">
<use xlink:href="#path8_fill" fill="white" transform="translate(-330.788 -332.25)"/>
</mask>
<g mask="url(#mask4_outline_ins)">
<use xlink:href="#path9_stroke_2x" transform="translate(-330.788 -332.25)" style="mix-blend-mode:normal;"/>
</g>
</g>
<g id="Vector" style="mix-blend-mode:normal;" figma:type="vector">
<mask id="mask5_outline_ins">
<use xlink:href="#path10_fill" fill="white" transform="translate(-396.121 -308.5)"/>
</mask>
<g mask="url(#mask5_outline_ins)">
<use xlink:href="#path11_stroke_2x" transform="translate(-396.121 -308.5)" style="mix-blend-mode:normal;"/>
</g>
</g>
<g id="Vector" style="mix-blend-mode:normal;" figma:type="vector">
<mask id="mask6_outline_ins">
<use xlink:href="#path12_fill" fill="white" transform="translate(-360.485 -266.938)"/>
</mask>
<g mask="url(#mask6_outline_ins)">
<use xlink:href="#path13_stroke_2x" transform="translate(-360.485 -266.938)" style="mix-blend-mode:normal;"/>
</g>
</g>
</g>
</g>
</g>
</g>
</g>
<defs>
<path id="path0_fill" d="M 181.723 0L 26.1589 0C 11.7335 0 -4.73492e-08 11.7298 -4.73492e-08 26.1475L -4.73492e-08 353.849C -4.73492e-08 368.27 11.7335 380 26.1589 380L 181.723 380C 196.145 380 207.879 368.27 207.879 353.849L 207.879 26.1475C 207.879 11.7298 196.145 0 181.723 0ZM 196 353.849C 196 361.721 189.597 368.125 181.723 368.125L 26.1589 368.125C 18.2849 368.125 11.8786 361.721 11.8786 353.849L 11.8786 26.1475C 11.8786 18.2759 18.2849 11.8748 26.1589 11.8748L 181.723 11.8748C 189.597 11.8748 196 18.2759 196 26.1475L 196 353.849L 196 353.849Z"/>
<path id="path1_stroke_2x" d="M 207.879 26.1475L 213.879 26.1475L 207.879 26.1475ZM 181.723 -6L 26.1589 -6L 26.1589 6L 181.723 6L 181.723 -6ZM 26.1589 -6C 8.42205 -6 -6 8.41379 -6 26.1475L 6 26.1475C 6 15.0457 15.0449 6 26.1589 6L 26.1589 -6ZM -6 26.1475L -6 353.849L 6 353.849L 6 26.1475L -6 26.1475ZM -6 353.849C -6 371.586 8.42159 386 26.1589 386L 26.1589 374C 15.0454 374 6 364.955 6 353.849L -6 353.849ZM 26.1589 386L 181.723 386L 181.723 374L 26.1589 374L 26.1589 386ZM 181.723 386C 199.458 386 213.879 371.585 213.879 353.849L 201.879 353.849C 201.879 364.955 192.833 374 181.723 374L 181.723 386ZM 213.879 353.849L 213.879 26.1475L 201.879 26.1475L 201.879 353.849L 213.879 353.849ZM 213.879 26.1475C 213.879 8.41425 199.457 -6 181.723 -6L 181.723 6C 192.833 6 201.879 15.0453 201.879 26.1475L 213.879 26.1475ZM 190 353.849C 190 358.407 186.283 362.125 181.723 362.125L 181.723 374.125C 192.911 374.125 202 365.035 202 353.849L 190 353.849ZM 181.723 362.125L 26.1589 362.125L 26.1589 374.125L 181.723 374.125L 181.723 362.125ZM 26.1589 362.125C 21.5968 362.125 17.8786 358.405 17.8786 353.849L 5.87857 353.849C 5.87857 365.036 14.973 374.125 26.1589 374.125L 26.1589 362.125ZM 17.8786 353.849L 17.8786 26.1475L 5.87857 26.1475L 5.87857 353.849L 17.8786 353.849ZM 17.8786 26.1475C 17.8786 21.5931 21.5951 17.8748 26.1589 17.8748L 26.1589 5.87478C 14.9747 5.87478 5.87857 14.9587 5.87857 26.1475L 17.8786 26.1475ZM 26.1589 17.8748L 181.723 17.8748L 181.723 5.87478L 26.1589 5.87478L 26.1589 17.8748ZM 181.723 17.8748C 186.285 17.8748 190 21.5914 190 26.1475L 202 26.1475C 202 14.9604 192.909 5.87478 181.723 5.87478L 181.723 17.8748ZM 190 26.1475L 190 353.849L 202 353.849L 202 26.1475L 190 26.1475Z"/>
<path id="path2_fill" d="M 17.8179 -4.73341e-06L 3.12504e-06 -4.73341e-06L 3.12504e-06 11.8748L 17.8179 11.8748L 17.8179 -4.73341e-06Z"/>
<path id="path3_stroke_2x" d="M 3.12504e-06 -4.73341e-06L 3.12504e-06 -6L -6 -6L -6 -4.73341e-06L 3.12504e-06 -4.73341e-06ZM 17.8179 -4.73341e-06L 23.8179 -4.73341e-06L 23.8179 -6L 17.8179 -6L 17.8179 -4.73341e-06ZM 17.8179 11.8748L 17.8179 17.8748L 23.8179 17.8748L 23.8179 11.8748L 17.8179 11.8748ZM 3.12504e-06 11.8748L -6 11.8748L -6 17.8748L 3.12504e-06 17.8748L 3.12504e-06 11.8748ZM 3.12504e-06 6L 17.8179 6L 17.8179 -6L 3.12504e-06 -6L 3.12504e-06 6ZM 11.8179 -4.73341e-06L 11.8179 11.8748L 23.8179 11.8748L 23.8179 -4.73341e-06L 11.8179 -4.73341e-06ZM 17.8179 5.87479L 3.12504e-06 5.87479L 3.12504e-06 17.8748L 17.8179 17.8748L 17.8179 5.87479ZM 6 11.8748L 6 -4.73341e-06L -6 -4.73341e-06L -6 11.8748L 6 11.8748Z"/>
<path id="path4_fill" d="M 17.8178 -4.73341e-06L 3.97733e-06 -4.73341e-06L 3.97733e-06 11.8748L 17.8178 11.8748L 17.8178 -4.73341e-06Z"/>
<path id="path5_stroke_2x" d="M 3.97733e-06 -4.73341e-06L 3.97733e-06 -6L -6 -6L -6 -4.73341e-06L 3.97733e-06 -4.73341e-06ZM 17.8178 -4.73341e-06L 23.8178 -4.73341e-06L 23.8178 -6L 17.8178 -6L 17.8178 -4.73341e-06ZM 17.8178 11.8748L 17.8178 17.8748L 23.8178 17.8748L 23.8178 11.8748L 17.8178 11.8748ZM 3.97733e-06 11.8748L -6 11.8748L -6 17.8748L 3.97733e-06 17.8748L 3.97733e-06 11.8748ZM 3.97733e-06 6L 17.8178 6L 17.8178 -6L 3.97733e-06 -6L 3.97733e-06 6ZM 11.8178 -4.73341e-06L 11.8178 11.8748L 23.8178 11.8748L 23.8178 -4.73341e-06L 11.8178 -4.73341e-06ZM 17.8178 5.87479L 3.97733e-06 5.87479L 3.97733e-06 17.8748L 17.8178 17.8748L 17.8178 5.87479ZM 6 11.8748L 6 -4.73341e-06L -6 -4.73341e-06L -6 11.8748L 6 11.8748Z"/>
<path id="path6_fill" d="M 29.6972 -4.73341e-06L 2.17806e-06 -4.73341e-06L 2.17806e-06 11.8748L 29.6972 11.8748L 29.6972 -4.73341e-06Z"/>
<path id="path7_stroke_2x" d="M 2.17806e-06 -4.73341e-06L 2.17806e-06 -6L -6 -6L -6 -4.73341e-06L 2.17806e-06 -4.73341e-06ZM 29.6972 -4.73341e-06L 35.6972 -4.73341e-06L 35.6972 -6L 29.6972 -6L 29.6972 -4.73341e-06ZM 29.6972 11.8748L 29.6972 17.8748L 35.6972 17.8748L 35.6972 11.8748L 29.6972 11.8748ZM 2.17806e-06 11.8748L -6 11.8748L -6 17.8748L 2.17806e-06 17.8748L 2.17806e-06 11.8748ZM 2.17806e-06 6L 29.6972 6L 29.6972 -6L 2.17806e-06 -6L 2.17806e-06 6ZM 23.6972 -4.73341e-06L 23.6972 11.8748L 35.6972 11.8748L 35.6972 -4.73341e-06L 23.6972 -4.73341e-06ZM 29.6972 5.87479L 2.17806e-06 5.87479L 2.17806e-06 17.8748L 29.6972 17.8748L 29.6972 5.87479ZM 6 11.8748L 6 -4.73341e-06L -6 -4.73341e-06L -6 11.8748L 6 11.8748Z"/>
<path id="path8_fill" d="M 29.6972 0L 2.17806e-06 0L 2.17806e-06 11.8748L 29.6972 11.8748L 29.6972 0Z"/>
<path id="path9_stroke_2x" d="M 2.17806e-06 0L 2.17806e-06 -6L -6 -6L -6 0L 2.17806e-06 0ZM 29.6972 0L 35.6972 0L 35.6972 -6L 29.6972 -6L 29.6972 0ZM 29.6972 11.8748L 29.6972 17.8748L 35.6972 17.8748L 35.6972 11.8748L 29.6972 11.8748ZM 2.17806e-06 11.8748L -6 11.8748L -6 17.8748L 2.17806e-06 17.8748L 2.17806e-06 11.8748ZM 2.17806e-06 6L 29.6972 6L 29.6972 -6L 2.17806e-06 -6L 2.17806e-06 6ZM 23.6972 0L 23.6972 11.8748L 35.6972 11.8748L 35.6972 0L 23.6972 0ZM 29.6972 5.87478L 2.17806e-06 5.87478L 2.17806e-06 17.8748L 29.6972 17.8748L 29.6972 5.87478ZM 6 11.8748L 6 0L -6 0L -6 11.8748L 6 11.8748Z"/>
<path id="path10_fill" d="M 5.8713e-06 273.125L 160.364 273.125L 160.364 4.26007e-07L 5.8713e-06 4.26007e-07L 5.8713e-06 273.125ZM 11.8786 11.8748L 148.484 11.8748L 148.484 261.25L 11.8786 261.25L 11.8786 11.8748Z"/>
<path id="path11_stroke_2x" d="M 5.8713e-06 273.125L -5.99999 273.125L -5.99999 279.125L 5.8713e-06 279.125L 5.8713e-06 273.125ZM 160.364 273.125L 160.364 279.125L 166.364 279.125L 166.364 273.125L 160.364 273.125ZM 160.364 4.26007e-07L 166.364 4.26007e-07L 166.364 -6L 160.364 -6L 160.364 4.26007e-07ZM 5.8713e-06 4.26007e-07L 5.8713e-06 -6L -5.99999 -6L -5.99999 4.26007e-07L 5.8713e-06 4.26007e-07ZM 11.8786 11.8748L 11.8786 5.87478L 5.87857 5.87478L 5.87857 11.8748L 11.8786 11.8748ZM 148.484 11.8748L 154.484 11.8748L 154.484 5.87478L 148.484 5.87478L 148.484 11.8748ZM 148.484 261.25L 148.484 267.25L 154.484 267.25L 154.484 261.25L 148.484 261.25ZM 11.8786 261.25L 5.87857 261.25L 5.87857 267.25L 11.8786 267.25L 11.8786 261.25ZM 5.8713e-06 279.125L 160.364 279.125L 160.364 267.125L 5.8713e-06 267.125L 5.8713e-06 279.125ZM 166.364 273.125L 166.364 4.26007e-07L 154.364 4.26007e-07L 154.364 273.125L 166.364 273.125ZM 160.364 -6L 5.8713e-06 -6L 5.8713e-06 6L 160.364 6L 160.364 -6ZM -5.99999 4.26007e-07L -5.99999 273.125L 6.00001 273.125L 6.00001 4.26007e-07L -5.99999 4.26007e-07ZM 11.8786 17.8748L 148.484 17.8748L 148.484 5.87478L 11.8786 5.87478L 11.8786 17.8748ZM 142.484 11.8748L 142.484 261.25L 154.484 261.25L 154.484 11.8748L 142.484 11.8748ZM 148.484 255.25L 11.8786 255.25L 11.8786 267.25L 148.484 267.25L 148.484 255.25ZM 17.8786 261.25L 17.8786 11.8748L 5.87857 11.8748L 5.87857 261.25L 17.8786 261.25Z"/>
<path id="path12_fill" d="M 89.0908 2.2247e-06L -2.36746e-06 2.2247e-06L -2.36746e-06 11.8748L 89.0908 11.8748L 89.0908 2.2247e-06Z"/>
<path id="path13_stroke_2x" d="M -2.36746e-06 2.2247e-06L -2.36746e-06 -6L -6 -6L -6 2.2247e-06L -2.36746e-06 2.2247e-06ZM 89.0908 2.2247e-06L 95.0908 2.2247e-06L 95.0908 -6L 89.0908 -6L 89.0908 2.2247e-06ZM 89.0908 11.8748L 89.0908 17.8748L 95.0908 17.8748L 95.0908 11.8748L 89.0908 11.8748ZM -2.36746e-06 11.8748L -6 11.8748L -6 17.8748L -2.36746e-06 17.8748L -2.36746e-06 11.8748ZM -2.36746e-06 6L 89.0908 6L 89.0908 -6L -2.36746e-06 -6L -2.36746e-06 6ZM 83.0908 2.2247e-06L 83.0908 11.8748L 95.0908 11.8748L 95.0908 2.2247e-06L 83.0908 2.2247e-06ZM 89.0908 5.87479L -2.36746e-06 5.87479L -2.36746e-06 17.8748L 89.0908 17.8748L 89.0908 5.87479ZM 6 11.8748L 6 2.2247e-06L -6 2.2247e-06L -6 11.8748L 6 11.8748Z"/>
</defs>
</svg>
