<svg width="484" height="171" viewBox="0 0 484 171" version="1.1" xmlns="http://www.w3.org/2000/svg" xmlns:xlink="http://www.w3.org/1999/xlink" xmlns:figma="http://www.figma.com/figma/ns">
<g id="Vector 2" style="mix-blend-mode:normal;" figma:type="vector" transform="translate(-554 -711)">
<path id="path0_stroke" d="M 166 0L 166.803 -1.83177L 166.007 -2.18053L 165.209 -1.83703L 166 0ZM 15 65L 14.2092 63.163L 13.1854 63.6037L 13.0217 64.7062L 15 65ZM 0 166L -1.9783 165.706L -2.31897 168L 0 168L 0 166ZM 474 135L 474.454 136.948L 480.311 135.583L 474.803 133.168L 474 135ZM 341 166L 341 168L 341.23 168L 341.454 167.948L 341 166ZM 165.209 -1.83703L 14.2092 63.163L 15.7908 66.837L 166.791 1.83703L 165.209 -1.83703ZM 13.0217 64.7062L -1.9783 165.706L 1.9783 166.294L 16.9783 65.2938L 13.0217 64.7062ZM 0.572883 167.916L 194.573 109.916L 193.427 106.084L -0.572883 164.084L 0.572883 167.916ZM 195.936 107.498L 167.936 -0.501924L 164.064 0.501924L 192.064 108.502L 195.936 107.498ZM 473.546 133.052L 340.546 164.052L 341.454 167.948L 474.454 136.948L 473.546 133.052ZM 341 164L 0 164L 0 168L 341 168L 341 164ZM 165.197 1.83177L 473.197 136.832L 474.803 133.168L 166.803 -1.83177L 165.197 1.83177ZM 341.734 164.14L 194.734 106.14L 193.266 109.86L 340.266 167.86L 341.734 164.14Z"/>
</g>
</svg>
